<?xml version="1.0" standalone="no"?>
<!DOCTYPE svg PUBLIC "-//W3C//DTD SVG 1.1//EN" "http://www.w3.org/Graphics/SVG/1.1/DTD/svg11.dtd" >
<svg>
<metadata>
Created by FontForge 20120731 at Sun Oct  8 18:03:36 2017
 By www-data
</metadata>
<defs>
<font id="ArcadeAlternate" horiz-adv-x="594" >
  <font-face 
    font-family="Arcade Alternate"
    font-weight="400"
    font-stretch="squinchy"
    units-per-em="1000"
    panose-1="0 0 0 0 0 0 0 0 0 0"
    ascent="750"
    descent="-250"
    x-height="512"
    cap-height="739"
    bbox="0 -206 750 739"
    underline-thickness="50"
    underline-position="-50"
    unicode-range="U+0020-2013"
  />
    <missing-glyph />
    <glyph glyph-name="space" unicode=" " horiz-adv-x="300" 
 />
    <glyph glyph-name="E" unicode="E" horiz-adv-x="593" 
d="M205 637v-113v-103h103h103v-103h-103h-103v-103v-113h103h103h102v-102h-102h-103h-103h-113h-31v102v11h-61v102v103v103v103v102h61v11v102h31h113h103h103h102v-102h-102h-103h-103v0z" />
    <glyph glyph-name="F" unicode="F" 
d="M411 739h103v-102h-103h-103h-103v-113v-103h103h103v-103h-103h-103v-103v-113v-102h-102h-103v102v113v103v103v103v102h61v11v102h42h102h103h103v0z" />
    <glyph glyph-name="G" unicode="G" 
d="M514 205v-103h-103v103h-102v103h102h103v-103zM309 739h102v-102h-102h-103v-113v-103v-103v-103v-113h103h102v-102h-102h-103h-103h-41v102v11h-62v102v103v103v103v102h62v11v102h41h103h103zM514 534h-103v103h103v-103z" />
    <glyph glyph-name="H" unicode="H" horiz-adv-x="696" 
d="M555 626h61v-102v-103v-103v-103v-102v-113h-61h-42h-102v102v113v103v31h-103h-103v-31v-103v-113v-102h-103h-41h-61v113v102v103v103v103v102h61v11v102h41h103v-102v-113v-72h103h103v72v113v102h102h42v-102v-11v0z" />
    <glyph glyph-name="I" unicode="I" 
d="M360 215v-102v-11h103h51v-102h-51h-103h-62h-41h-103h-102h-52v102h52h102v113v103v103v103v113h-102h-52v102h52h102h103h41h62h103h51v-102h-51h-103v-11v-102v-103v-103v-103v0z" />
    <glyph glyph-name="J" unicode="J" horiz-adv-x="645" 
d="M513 739h52v-102h-52h-102v-11v-10v-92v-103v-103v-103v-102h-62v-11v-102h-41h-103h-154v51h-51v103v102h102v-102v-52h103v113v103v103v103v113h-103h-51v102h51h103h103h41h62h102v0z" />
    <glyph glyph-name="K" unicode="K" 
d="M205 523v-103h103v-102h-103v-103v-113v-102h-102h-103v102v113v103v103v102v103h62v10v103h41h102v-103v-113zM411 739h103v-113v-103h-103v-103h-103v103v103h72v113h31zM308 113v102v103h103v-102h103v-103v-113h-103h-31v113h-72z" />
    <glyph glyph-name="L" unicode="L" 
d="M411 113h103v-113h-103h-103h-102h-103h-103v102v113v103v103v102v103h62v10v103h41h103v-103v-113v-102v-103v-103v-102h102h103v0z" />
    <glyph glyph-name="M" unicode="M" horiz-adv-x="717" 
d="M575 626h62v-103v-103v-102v-103v-113v-102h-92h-72v102v113v103v102h-93v-92h-62h-61v92h-93v-102v-103v-113v-102h-72h-92v102v113v103v102v103v103h62v10v103h30h72v-103h93v-103v-10h61h52v10v103h103v103h72h30v-103v-10v0z" />
    <glyph glyph-name="N" unicode="N" horiz-adv-x="697" 
d="M524 739h93v-103v-113v-102v-103v-103v-102h-62v-11v-102h-31h-71v102v11h-103v103h-82v92h-103v-93v-92v-21v-92v-10h-72h-93v102v113v103v103v102v103h62v10v103h31h72v-103v-21h103v-92h102v-103h83v103v113v103h71v0z" />
    <glyph glyph-name="O" unicode="O" horiz-adv-x="635" 
d="M452 636h103v-123v-113v-113v-236h-103v-51h-113h-10h-103h-21h-102v51h-103v236v113v113v123h103v103h102h21h103h10h113v-103zM226 113h103v61h61v113v113v113h-61v123h-103v-123h-62v-113v-113v-113h62v-61z" />
    <glyph glyph-name="P" unicode="P" horiz-adv-x="595" 
d="M463 636h52v-104v-103h-103v103v52h-52v52h-51h-104v-113v-93v-1h104h103v-104h-103h-104v-7v-103v-113v-102h-113h-31h-61v113v102v103v103v102v103h72v10v103h20h113h104h103v-51h51v-52v0z" />
    <glyph glyph-name="Q" unicode="Q" horiz-adv-x="635" 
d="M452 646h103v-113v-102v-31v-82v-133h-103v-52h-113h-10v-30h102h124v-103h-124h-102h-103v31v71v31h-21h-102v52h-103v133v82v31v102v113h103v93h102h21h103h10h113v-93zM226 236h103v62h61v20v82v31v102h-61v62h-103v-62h-62v-102v-31v-82v-20h62v-62z" />
    <glyph glyph-name="R" unicode="R" horiz-adv-x="596" 
d="M381 113h-72v113h103h102v-113v-113h-102h-31v113zM464 636h52v-104v-103h-103v103v52h-52v52h-51h-104v-113v-93v-1h104h103v-104h-103h-1v-99h-103v-11v-113v-102h-113h-31h-62v113v102v103v103v102v103h72v10v103h21h113h104h103v-51h51v-52z" />
    <glyph glyph-name="S" unicode="S" horiz-adv-x="656" 
d="M575 318h31v-215h-31h-41v-72h-72v-31h-103h-215v31h-93h-31v174h31h93v-62v-10v-30h113h102h62h41v102v103v10h-103h-10h-92h-11h-102h-72v102h-42h-30v216h30h42v72h72v31h102h216v-31h93h31v-175h-31h-93v62v10v31h-113h-103h-61h-41v-103v-102v-11h102h11h92h10h103
h72v-102h41v0z" />
    <glyph glyph-name="T" unicode="T" 
d="M462 739h52v-103h-52h-102v-10v-103v-102v-103v-103v-102v-113h-62h-41h-103v102v113v103v103v102v113h-103h-51v103h51h103h103h41h62h102v0z" />
    <glyph glyph-name="U" unicode="U" horiz-adv-x="759" 
d="M596 739h83v-236v-123v-267h-72v-113h-113h-103h-103h-113h-103v113h-72v267v123v144h72v92h93h10h62v-164v-154v-308h51h103h103v103v102v103v113v102v103h102v0z" />
    <glyph glyph-name="V" unicode="V" horiz-adv-x="655" 
d="M462 739h113v-144v-133v-134v-215h-113v-113h-133h-11h-61h-21h-113v113h-123v215v134v133v144h123v-92h62v-185v-134v-122h72v-72h61v72h72v122v134v185h72v92v0z" />
    <glyph glyph-name="W" unicode="W" horiz-adv-x="759" 
d="M175 216v-102h113v-113h-113h-103v113h-72v266v123v144h72v92h103v-103v-102v-113v-102v-103zM596 647h83v-144v-123v-266h-72v-113h-114h-102v113h103v102v103v102v113v102v103h102v-92zM391 329v-103v-112h-103v112v103v10v103h103v-103v-10z" />
    <glyph glyph-name="X" unicode="X" horiz-adv-x="687" 
d="M504 420h-103v-101h103v-103h31h30v-113v-10h72v-93h-102h-113v103h-72v113h-42h-20v-113h-72v-103h-103h-113v93h72v10v113h41h21v103h82v101h-82v103h-21h-41v113v11h-72v92h113h103v-103h62v-113h30h42v113h72v103h113h102v-92h-72v-11v-113h-30h-31v-103v0z" />
    <glyph glyph-name="Y" unicode="Y" horiz-adv-x="707" 
d="M555 605h72v-174h-52h-51v-112h-103v-103v-101v-115h-66h-47h-103v103v113v103h-103v112h-51h-51v174h72v11v123h30h103v-103v-102v-103h103h113v103v102v103h103h31v-123v-11v0z" />
    <glyph glyph-name="Z" unicode="Z" horiz-adv-x="697" 
d="M494 739h123v-123v-62h-123v-61v-124h-124v-122h-123v-124h123h124h123v-123h-123h-124h-123h-123h-124v123v62h124v61v123h123v123h123v124h-123h-123h-124v123h124h123h123h124v0z" />
    <glyph glyph-name="zero" unicode="0" horiz-adv-x="697" 
d="M514 595h103v-10v-113v-10v-92v-11v-102v-10v-93v-20h-52v-93h-113v-41h-51h-185h-52v41h-113v93h-51v20v93v10v102v11v92v10v113v10h103v103h61v41h52h185h51v-41h62v-103zM452 462v10v113h-51v41h-185v-41h-52v-113v-10v-92v-11v-102v-10v-93h52v-51h185v51h51v93v10
v102v11v92z" />
    <glyph glyph-name="one" unicode="1" horiz-adv-x="609" 
d="M423 106h106v-106h-106h-106h-106h-105h-106v106h106h52v105v106v105v106h-105v106h105v105h106h106v-106v-105v-106v-105v-106v-105h53v0z" />
    <glyph glyph-name="two" unicode="2" horiz-adv-x="666" 
d="M453 626h123v-103v-123h-123v-71h-124v-113h-102v-103h102h124h123v-113h-123h-124h-102h-114h-113v113v51h114v52v113h113v122h102v72h124v93h-124h-102h-113v-93h-114v103h114v113h113h102h124v-113v0z" />
    <glyph glyph-name="three" unicode="3" horiz-adv-x="687" 
d="M453 349h144v-133v-103h-144v-113h-124h-113h-113v113h-103v103h103v-82h113h113h124v82v113h-124h-113v102h113v31v71h124v72h-124h-113h-113v-72h-103v103h103v103h113h113h124v-103h123v-102v-124h-123v-61v0z" />
    <glyph glyph-name="four" unicode="4" horiz-adv-x="738" 
d="M534 297h124v-103h-124v-82v-113h-61h-103v113v82h-103h-103h-113h-51v103v113h51v103h113v113h103v51h103v52h103h61v-103v-93v-113v-113v-10zM267 297h103v10v113v93h-103v-103h-103v-113h103z" />
    <glyph glyph-name="five" unicode="5" horiz-adv-x="748" 
d="M0 236h113v-113h-113v113zM576 410h82v-143v-144h-82v-123h-216h-123h-124v123h124h123h134v144v123v20h-114h-113h-102h-113v113v103v113h113h102h113h113h114v-113h-114h-113h-113h-61v-103h61h113h113h83v-113z" />
    <glyph glyph-name="six" unicode="6" horiz-adv-x="718" 
d="M575 410h83v-143v-144h-83v-123h-216h-123h-123v123h-113v113v31v143h41v113v103h92v113h113h113h103h113v-113h-113h-103h-113h-51v-103h72h113h103h92v-113zM483 123v144v123v20h-103h-113h-103v-143v-41h72v-103h123h124z" />
    <glyph glyph-name="seven" unicode="7" horiz-adv-x="697" 
d="M534 739h103v-103v-113h-103v-103h-113v-101h-103v-103v-113v-103h-103h-102v103v113h102v102v102h103v103h103v113h-103h-103h-102v-113h-113v113v103h113h102h103h103h113v0z" />
    <glyph glyph-name="eight" unicode="8" horiz-adv-x="636" 
d="M524 216h52v-113h-52v-103h-103h-102h-103h-113v103h113h103h103v113h-103h-103v103h-113v102h-103v103v112h103v-113h113v-102h103h103v-102h102v-103zM422 421v103v112h102v-112v-103h-102zM103 319v-103v-113h-103v113v103h103zM319 636h-103h-113v103h113h103h103
v-103h-103z" />
    <glyph glyph-name="nine" unicode="9" horiz-adv-x="737" 
d="M544 616h113v-113v-31v-143h-41v-113v-103h-92v-113h-113h-113h-103h-113v113h113h103h113h51v103h-72h-113h-103h-92v113h-82v143v144h82v123h216h123h123v-123zM493 329v143v41h-72v103h-123h-124v-144v-123v-20h103h113h103z" />
    <glyph glyph-name="a" unicode="a" horiz-adv-x="574" 
d="M412 473h82v-164v-103v-103v-103h-83h-102h-103h-103h-103v103v154h72v52h83v41h102h72v61h-20h-103h-103v-41h-103v103h103v41h103h103h103v-41zM309 103h20v103v41h-72h-82v-41h-72v-103h103h103z" />
    <glyph glyph-name="b" unicode="b" horiz-adv-x="573" 
d="M421 422h72v-144v-11v-72v-10v-82h-103v82v10v72v11v51h-72v82h-82h-72v-102v-103v-103h21h103h102v-103h-102h-103h-103h-82v103v103v103v102v103v103h82h82v-103h72h103v-41h82v-51v0z" />
    <glyph glyph-name="c" unicode="c" horiz-adv-x="573" 
d="M493 206v-103h-103v103h103zM493 309h-103v102h103v-102zM287 514h103v-103h-103h-102v-102v-103v-103h102h103v-103h-103h-102h-103h-10v103v10h-72v93v103v92h72v10v103h10h103h102z" />
    <glyph glyph-name="d" unicode="d" horiz-adv-x="574" 
d="M411 617h83v-103v-103v-102v-103v-93v-10v-103h-72h-11h-102h-103h-103v103h103h103h20v103v103v102h-72h-82v-82h-72v-62v-72v-20v-72h-103v72v20v72v155h72v51h82v41h103h72v103h82v0z" />
    <glyph glyph-name="e" unicode="e" horiz-adv-x="574" 
d="M453 401h41v-92v-103h-103h-103h-123v-103h123h103h103v-103h-103h-103h-123h-82h-11v103v10h-72v93v103v102h83v103h82h123h103h62v-103v-10zM288 309h103v51h-51v51h-52h-123v-102h123z" />
    <glyph glyph-name="f" unicode="f" horiz-adv-x="481" 
d="M370 617h31v-103h-31h-102v-103v-51h102v-103h-102v-51v-93v-10v-103h-72h-11h-82v103v103v51h-103v103h103v51v103h72v103h10h83h102v0z" />
    <glyph glyph-name="g" unicode="g" horiz-adv-x="574" 
d="M411 419h83v-103v-103v-103v-102v-93h-72v-10v-111h-11h-82h-123h-103h-103v111h103h103h123v95h-123h-103v110h103h123v103v103v92h-123h-31v-82h-72v-20v-93v-10v-93h-103v93v10v93v92h41v10v103h62h103h123h82v-92v0z" />
    <glyph glyph-name="h" unicode="h" horiz-adv-x="584" 
d="M453 410h51v-102v-11v-92v-103v-103h-51h-83v103v103v103v20h-51v82h-82h-72v-102v-103v-103v-103h-82h-83v103v103v103v102v103v103h83h82v-103h72h103v-41h82v-62h10h21v0z" />
    <glyph glyph-name="i" unicode="i" horiz-adv-x="234" 
d="M0 513h82h82v-308v-103v-103h-82h-10h-72v103v10v93v308zM0 678h164v-103h-164v103z" />
    <glyph glyph-name="j" unicode="j" horiz-adv-x="460" 
d="M226 513h82h82v-308v-103v-103v-92h-72v-11v-102h-10h-82h-123v102h123v103v103v10v93v308zM226 678h164v-103h-164v103zM0 -1h103v-103h-103v103z" />
    <glyph glyph-name="k" unicode="k" horiz-adv-x="501" 
d="M319 92h-52v103h103v-93h51v-102h-102v92zM319 513h102v-51v-51v-52h-51v-103h-103v-61h-102v-93v-102h-83h-82v102v103v103v103v102v103h82h83v-103v-102v-103v-10h102v61h52v52v51v51z" />
    <glyph glyph-name="l" unicode="l" horiz-adv-x="255" 
d="M82 616h83v-103v-102v-103v-103v-103v-102h-83h-82v102v103v103v103v102v103h82v0z" />
    <glyph glyph-name="m" unicode="m" horiz-adv-x="676" 
d="M544 452h52v-103v-10v-93v-103v-143h-52h-82v143v103v103v10h-51v31h-31v-41v-10v-93v-103v-143h-51h-83v143v103v103v10h-51v31h-31v-82v-103v-103v-102h-82h-82v102v103v103v92h72v11v102h10h31h51h31h21h82h113h20h83v-61h10h20v0z" />
    <glyph glyph-name="n" unicode="n" horiz-adv-x="584" 
d="M452 411h52v-103v-10v-93v-103v-102h-52h-82v102v103v103v20h-51v83h-82h-72v-103v-103v-103v-102h-83h-82v102v103v103v103v102h82h52h31h72h102v-41h83v-61h10h20v0z" />
    <glyph glyph-name="o" unicode="o" horiz-adv-x="543" 
d="M380 472h83v-61v-21v-82v-124v-82v-20v-41h-83v-41h-31h-61h-10h-21h-51h-21h-10h-62h-31v41h-82v41v20v82v124v82v21v61h82v41h31h62h10h21h51h21h10h61h31v-41zM360 184v124v31h-62v72h-10h-10h-21h-51h-21h-10h-10v-72h-62v-31v-124v-10h62v-72h10h10h21h51h21h10h10
v72h62v10z" />
    <glyph glyph-name="p" unicode="p" horiz-adv-x="522" 
d="M370 102v-102h-103h-103v-206h-82h-82v205v103v103v103v103v102h82h31h51h51h103v-41h82v-51h72v-144v-10v-72v-11v-82h-102v82v11v72v10v51h-72v83h-83h-51v-103v-103v-103h103h103v0z" />
    <glyph glyph-name="q" unicode="q" horiz-adv-x="553" 
d="M390 513h83v-102v-103v-103v-103v-103v-205h-83h-82v206h-103h-102v102h102h103v103v103v103h-51h-82v-83h-72v-51v-10v-72v-11v-82h-103v82v11v72v10v144h72v51h82v41h103h51h52h30v0z" />
    <glyph glyph-name="r" unicode="r" horiz-adv-x="466" 
d="M370 411h51v-103h-102v103h-52h-103v-103v-103v-103v-102h-82h-82v102v103v103v92h72v11v102h10h82h103h103v-102v0z" />
    <glyph glyph-name="s" unicode="s" 
d="M519 360h-82v52h-103h-103h-103v-103h103h103h103h57v-104v0h50v-92v-11h-50v-102h-78h-82h-103h-103v51h-103v103h103v-52h103h103h83v103h-83h-103h-103h-78v103v1h-50v103h50v-1v103h78h103h103h103v-51h82v-103v0z" />
    <glyph glyph-name="t" unicode="t" horiz-adv-x="522" 
d="M267 205v-103h83v-102h-124h-82v102h-41v310h-103v102h103v102h164v-102h103v-102h-103v-207zM350 205h102v-103h-102v103z" />
    <glyph glyph-name="u" unicode="u" horiz-adv-x="553" 
d="M370 514h103v-105v-102v-103v-101h-52v-103h-51h-103h-103h-82h-10v102v11h-72v91v103v92h72v10v105h10h83v-105v-102v-103v-101h102h103v101v103v102v105v0z" />
    <glyph glyph-name="v" unicode="v" horiz-adv-x="502" 
d="M350 512h72v-103v-102v-103v-101h-61v-52v-51h-62h-93h-93h-62v51v52h-51v101v103v102v103h72v-62h41v-41v-102v-103v-51h61v-50h32h31v50h62v51v103v102v41h51v62v0z" />
    <glyph glyph-name="w" unicode="w" horiz-adv-x="666" 
d="M144 205v-102h103v-103h-113h-62v103h-72v102v102v103v41h51v62h93v-103v-103v-102zM545 451h51v-41v-103v-102v-102h-72v-103h-61h-114v103h103v102v102v103v103h93v-62zM349 308v-103v-102h-102v102v103h102z" />
    <glyph glyph-name="x" unicode="x" horiz-adv-x="512" 
d="M370 287h-72v-62h72v-72h20h21v-82v-10h51v-61h-72h-82v72h-51v81h-31h-21v-81h-41v-72h-82h-82v61h51v10v82h31h20v72h62v62h-62v71h-20h-31v82v10h-51v64h82h82v-74h41v-82h21h31v82h51v74h82h72v-64h-51v-10v-82h-21h-20v-71v0z" />
    <glyph glyph-name="y" unicode="y" horiz-adv-x="595" 
d="M164 215v-10v-92h-102v0h-62v286h62v1v10v104h102v-186v-20v-93zM497 514h27v-196v-103v-103v-102v-103h-41v0v-113h-11h-82h-123h-103h-102v103h102h103h123v102h-123h-103v114h103h123v102v103v10v186h107z" />
    <glyph glyph-name="z" unicode="z" horiz-adv-x="491" 
d="M277 195h-113v-92h103h103h61v-103h-61h-103h-103h-103h-61v144h61v61h103v102h103v103h-103h-103h-61v104h61h103h103h103h61v-145h-61v-62h-93v-112v0z" />
    <glyph glyph-name="period" unicode="." horiz-adv-x="183" 
d="M103 0h-103v103h103v-103v0z" />
    <glyph glyph-name="comma" unicode="," horiz-adv-x="254" 
d="M61 103h113v-103h-61v-20v-31v-21h-113v52h61v20v103v0z" />
    <glyph glyph-name="semicolon" unicode=";" horiz-adv-x="254" 
d="M61 0v103h113v-103h-61v-20v-31v-21h-113v52h61v20zM72 319h102v-103h-102v103z" />
    <glyph glyph-name="colon" unicode=":" horiz-adv-x="183" 
d="M0 0v103h103v-103h-103zM0 319h103v-103h-103v103z" />
    <glyph glyph-name="backslash" unicode="\" horiz-adv-x="501" 
d="M370 102h51v-103h-102v103h-62v113h-51v103h-41v103h-52v102h-62v113h-51v103h103v-103h62v-113h51v-102h51v-103h41v-103h62v-113v0z" />
    <glyph glyph-name="quotesingle" unicode="'" horiz-adv-x="193" 
d="M0 739h113v-113v-51h-51v51h-62v113zM0 523v52h62v-52h-62z" />
    <glyph glyph-name="quotedbl" unicode="&#x22;" horiz-adv-x="378" 
d="M0 626v113h113v-113v-51h-51v51h-62zM0 523v52h62v-52h-62zM185 739h113v-113v-51h-51v51h-62v113zM185 523v52h62v-52h-62z" />
    <glyph glyph-name="exclam" unicode="!" horiz-adv-x="655" 
d="M0 0v103h103v-103h-103zM535 666l60 -1v-132l-71 1v-103h-103h-51v-102h-103v0v-113h-154v113h41v102h52v103h61v132h62v73h103h103v-73z" />
    <glyph glyph-name="question" unicode="?" horiz-adv-x="593" 
d="M174 0v103h103v-103h-103zM226 431h82h103v-102h-103v-113h-82h-83v113h83v102zM411 636h102v-102v-103h-102v103v72h-52h-51h-52h-51h-51h-52v-72h-102v102h102v103h52h51h51h52h51h52v-103z" />
    <glyph glyph-name="hyphen" unicode="-" horiz-adv-x="306" 
d="M103 318h103v-103h-103h-103v103h103v0z" />
    <glyph glyph-name="underscore" unicode="_" 
d="M411 0h103v-103h-103h-102h-103h-103h-103v103h103h103h103h102v0z" />
    <glyph glyph-name="bracketleft" unicode="[" horiz-adv-x="450" 
d="M164 225v-103v-103h103h103v-103h-103h-103h-82h-82v103v103v103v102v103v103v103v103h82h82h103h103v-103h-103h-103v-103v-103v-103v-102v0z" />
    <glyph glyph-name="bracketright" unicode="]" horiz-adv-x="450" 
d="M288 739h82v-103v-103v-103v-103v-102v-103v-103v-103h-82h-83h-102h-103v103h103h102v103v103v102v103v103v103h-102h-103v103h103h102h83v0z" />
    <glyph glyph-name="numbersign" unicode="#" horiz-adv-x="717" 
d="M493 369v-92v-10h92v-82h-92h-11h-40v-93h-52v-92h-92v92h51v93h-51h-103h-41v-93h-52v-92h-92v92h51v93h-61v82h102v10v92h41v82v10h-82v82h83h20h31v93h31v103h92v-103h-31v-93h52h102h52v93h31v103h92v-103h-31v-93h52v-82h-103v-10v-82h-41zM400 267v10v92h42v82v10
h-103h-103v-10v-82h-41v-92v-10h103h102z" />
    <glyph glyph-name="at" unicode="@" horiz-adv-x="820" 
d="M0 616h82h83v-103v-102v-103v-103v-103v-102h-83h-82v102v103v103v103v102v103zM658 616h82v-103v-102v-103v-103v-103h-82h-82h-103h-103v52h-103v102h-51v103h51v103h103v51h103v-102v-103v-103h103v103v103v102v103h82zM319 256h51v52v51h-51v-103zM473 719h103v-103
h-103h-103h-103h-102v103h102h103h103zM267 -103h-102v103h102h103h103h103v-103h-103h-103h-103z" />
    <glyph glyph-name="dollar" unicode="$" horiz-adv-x="676" 
d="M566 324h30v-212h-30h-42v-71h-72v-30h-98h-4v-11h-103v11h-103v30h-93h-30v172h30h93v-61v-10v-30h103v212h-4h-101h-70v101h-42h-30v203h30h42v71h72v29h99h4v11h103v-11h102v-29h93h31v-173h-31h-93v63v10v29h-102v-203h4h101h69v-101h42zM243 425h4v203h-4h-61h-38
v-98v-100v-5h99zM452 311v13h-98h-4v-212h4h61h37v99v100z" />
    <glyph glyph-name="percent" unicode="%" horiz-adv-x="809" 
d="M462 524v-103h-51v-103h-41v-102h-52v-113h-61v-103h-103v103h51v113h62v102h41v103h51v103h52v113h62v101h102v-101h-51v-113h-62zM205 534v-103h-102h-103v103v103h103v-103h102zM205 534v103h-102v102h102h103v-103v-102h-103zM524 206v-103h103v-103h-103h-103v103
v103h103zM627 308h102v-102v-103h-102v103h-103v102h103z" />
    <glyph glyph-name="less" unicode="&#x3c;" 
d="M206 308v-51v-52h103v-51h102v-51h103v-103h-103v51h-102v52h-103v51h-103v51h-103v103h103v51h103v52h103v51h102v52h103v-103h-103v-52h-102v-51h-103v0z" />
    <glyph glyph-name="greater" unicode="&#x3e;" horiz-adv-x="593" 
d="M411 308h102v-103h-102v-51h-103v-51h-103v-52h-103v-51h-102v103h102v51h103v51h103v52v51h-103v51h-103v52h-102v103h102v-52h103v-51h103v-52h103v-51v0z" />
    <glyph glyph-name="ampersand" unicode="&#x26;" horiz-adv-x="830" 
d="M92 273v-91v-91h-92v91v91v91h92v-91zM277 91h93h102v-91h-102h-93h-92h-93v91h93h92zM277 647h-92h-93v92h93h92h93v-92h-93zM370 465v92v90h102v-90v-92h-102zM657 182h93v-91h-93v51h-92v-51h-93v91h-102v91h-93h-92v91h-93v101h-92v92v90h92v-90h93v-92h92h93v-101
h102v-91h52v91h51v101h93v-101h-52v-91h-51v-40h92v-51z" />
    <glyph glyph-name="plus" unicode="+" horiz-adv-x="625" 
d="M432 309h113v-103h-113h-113v-103v-103h-103v103v103h-103h-113v103h113h103v103v102h103v-102v-103h113v0z" />
    <glyph glyph-name="endash" unicode="&#x2013;" horiz-adv-x="398" 
d="M205 309h113v-103h-113h-103h-102v103h102h103v0z" />
    <glyph glyph-name="equal" unicode="=" horiz-adv-x="593" 
d="M411 412h102v-103h-102h-103h-103h-103h-102v103h102h103h103h103zM308 206h103h102v-103h-102h-103h-103h-103h-102v103h102h103h103z" />
    <glyph glyph-name="slash" unicode="/" horiz-adv-x="502" 
d="M422 739v-103h-52v-113h-61v-102h-52v-103h-41v-103h-51v-113h-62v-103h-103v103h52v113h61v103h41v103h52v102h51v113h62v103h103z" />
    <glyph glyph-name="asciicircum" unicode="^" horiz-adv-x="368" 
d="M247 533h41v-103h-82v103h-41v103h-42v-103h-41v-103h-82v103h41v103h52v103h102v-103h52v-103v0z" />
    <glyph glyph-name="asterisk" unicode="*" horiz-adv-x="625" 
d="M432 206h-11v-51h52v-52h51v-103h-103v52h-51v51h-51v-103h-103v103h-41v-51h-52v-52h-102v103h51v52h51v51h-10h-113v103h113h10v41h-51v62h-51v102h102v-61h52v-52h41v11v102h103v-102h51v51h51v51h103v-102h-51v-52h-52v-51h11h113v-103h-113v0z" />
    <glyph glyph-name="braceleft" unicode="{" horiz-adv-x="563" 
d="M380 739h103v-31v-21h-113v-20v-31v-52h-103v-51v-103v-72h-72v-31v-41h72v-61v-103v-52h103v-51v-31v-20h113v-21v-31h-103h-10h-83v72h-10h-103v31v51v52v10v93h-72v51h-102v103h102v51h72v93v10v51v52v31h103h10v72h83h10v0z" />
    <glyph glyph-name="braceright" unicode="}" horiz-adv-x="563" 
d="M380 379h103v-103h-103v-51h-72v-93v-10v-52v-51v-31h-103h-10v-72h-82h-11h-102v31v21h113v20v31v51h102v52v103v61h72v41v31h-72v72v103v51h-102v52v31v20h-113v21v31h102h11h82v-72h10h103v-31v-52v-51v-10v-93h72v-51v0z" />
    <glyph glyph-name="parenleft" unicode="(" horiz-adv-x="461" 
d="M278 739h103v-31v-21h-113v-20v-31v-52h-103v-51v-103v-72v-72v-61v-103v-52h103v-51v-31v-20h113v-21v-31h-103h-10h-83v72h-10h-103v31v51v52v10v0h-72v144v103v135h72v9v10v51v52v31h103h10v72h83h10v0z" />
    <glyph glyph-name="parenright" unicode=")" horiz-adv-x="460" 
d="M380 379v-103v-144h-72v0v-10v-52v-51v-31h-103h-10v-72h-82h-11h-102v31v21h113v20v31v51h102v52v103v61v72v72v103v51h-102v52v31v20h-113v21v31h102h11h82v-72h10h103v-31v-52v-51v-10v-9h72v-135v0z" />
    <glyph glyph-name="B" unicode="B" horiz-adv-x="605" 
d="M473 636h52v-104v-103h-103v103v52h-52v52h-51h-104v-207h104h103v-52h51v-52h52v-95v-126h-103v126v44h-52v51h-51h-104v-221h104h103v-104h-103h-104h-112h-103v102v113v103v103v103v113v102h103h112h104h103v-51h51v-52v0z" />
    <glyph glyph-name="C" unicode="C" horiz-adv-x="666" 
d="M308 739h165v-102h-165h-103v-113v-103v-103v-103v-113h103h165v-102h-165h-103h-113h-20v102v11h-72v102v103v103v103v102h72v11v102h20h113h103zM586 534h-113v103h113v-103zM586 205v-103h-113v103h113z" />
    <glyph glyph-name="A" unicode="A" horiz-adv-x="707" 
d="M318 739h237v-113h72v-99v-105v-105v-106v-105v-106h-100h-106v106v68h-105h-111v-68v-106h-100h-105v106v105v106v104h103v144h102v103h113v71zM421 422v102h-103v-103h-113v-104v-30h111h105v30v105z" />
    <glyph glyph-name="D" unicode="D" horiz-adv-x="625" 
d="M422 534h123v-113v-103v-103v-113h-123v113v103v103v113zM206 102h113h103v-102h-103h-113h-113h-31v102v11h-62v102v103v103v103v113v102h93h113h113v-102h-113v-113v-103v-103v-103v-113zM422 534h-103v103h103v-103z" />
    <glyph glyph-name="exclamdown" unicode="&#xa1;" horiz-adv-x="655" 
d="M0 0v103h103v-103h-103zM535 668h59v-134h-70v-103h-103h-51v-102h-103v1v-113l-154 -1v113h41v102h52v103h61v134h62v71h103h103v-71z" />
  </font>
</defs>
</svg>
